<?xml version="1.0" encoding="UTF-8"?>
<svg id="Layer_2" data-name="Layer 2" xmlns="http://www.w3.org/2000/svg" viewBox="0 0 59.79 59.79">
  <defs>
    <style>
      .cls-1 {
        fill: none;
        stroke: #775834;
        stroke-miterlimit: 10;
        stroke-width: 1.52px;
      }

      .cls-2 {
        fill: #775834;
      }

      .cls-2, .cls-3, .cls-4 {
        stroke-width: 0px;
      }

      .cls-3 {
        fill: #765633;
      }

      .cls-4 {
        fill: #f0c215;
      }
    </style>
  </defs>
  <g id="Layer_1-2" data-name="Layer 1">
    <g>
      <circle class="cls-1" cx="29.89" cy="29.89" r="29.13" transform="translate(-9.16 46.07) rotate(-67.5)"/>
      <g>
        <circle class="cls-4" cx="29.89" cy="29.89" r="24.25"/>
        <path class="cls-2" d="m29.89,7.14c12.55,0,22.75,10.21,22.75,22.75s-10.21,22.75-22.75,22.75S7.14,42.44,7.14,29.89,17.35,7.14,29.89,7.14m0-2.98C15.68,4.16,4.16,15.68,4.16,29.89s11.52,25.74,25.74,25.74,25.74-11.52,25.74-25.74S44.11,4.16,29.89,4.16h0Z"/>
      </g>
      <g>
        <path class="cls-3" d="m17.69,24.36c.04-.18.07-.37.12-.55.12-.49.36-.92.71-1.27.63-.64,1.26-1.28,1.91-1.9.82-.79,1.74-.83,2.56-.05,1.02.97,2.03,1.98,3,3,.8.84.73,1.75-.12,2.61-.54.55-1.09,1.09-1.64,1.63-.28.28-.29.35-.13.71.61,1.38,1.55,2.52,2.56,3.62,1.01,1.09,2.11,2.07,3.37,2.86.43.27.89.49,1.34.73.22.12.38.02.53-.13.55-.55,1.1-1.11,1.65-1.66.32-.32.68-.6,1.15-.67.62-.1,1.12.14,1.55.56.98.96,1.95,1.93,2.92,2.92.52.53.77,1.16.46,1.88-.12.27-.3.53-.5.74-.55.58-1.13,1.14-1.69,1.72-.8.83-1.78,1.07-2.89.99-1.89-.15-3.57-.88-5.21-1.77-3.18-1.72-5.83-4.06-8-6.94-1.41-1.87-2.54-3.88-3.24-6.11-.17-.55-.25-1.13-.37-1.69-.01-.05-.03-.1-.04-.16,0-.35,0-.7,0-1.05Z"/>
        <g>
          <path class="cls-4" d="m30.42,17.69c.48.11.96.2,1.43.33,3.86,1.03,6.75,3.32,8.72,6.78.76,1.34,1.25,2.79,1.53,4.35-.61.11-1.22.21-1.82.32-1.29-5.5-4.68-8.8-10.24-9.93.08-.59.16-1.22.24-1.84.05,0,.1,0,.14,0Z"/>
          <path class="cls-2" d="m30.42,17.69h-.14c-.08.63-.17,1.25-.24,1.84,5.56,1.13,8.95,4.43,10.24,9.93.6-.1,1.21-.21,1.82-.32-.28-1.56-.76-3.01-1.53-4.35-1.97-3.46-4.86-5.75-8.72-6.78-.47-.13-.95-.22-1.43-.33h0Z"/>
        </g>
        <g>
          <path class="cls-4" d="m37.15,29.47c-.62.11-1.23.21-1.84.31-.7-2.97-2.52-4.74-5.53-5.36.08-.61.17-1.22.26-1.84,3.28.37,6.47,3.07,7.11,6.88Z"/>
          <path class="cls-2" d="m30.04,22.59c-.09.61-.17,1.23-.26,1.84,3,.62,4.83,2.39,5.53,5.36.61-.1,1.22-.21,1.84-.31-.64-3.81-3.83-6.52-7.11-6.88h0Z"/>
        </g>
      </g>
    </g>
  </g>
</svg>